<svg xmlns="http://www.w3.org/2000/svg" viewBox="0 0 64 64">
  <circle cx="32" cy="32" r="31" fill="#FCFBF8" stroke="#E8DFD0" stroke-width="1" />
  <path d="M42 8a24 24 0 1 0 0 48 24 24 0 0 1 0-48z" fill="#B89A62" opacity="0.9" />
  <path d="M27 10a22 22 0 1 0 0 44 22 22 0 0 1 0-44z" fill="#173B32" />
  <g transform="translate(20.5, 21)">
    <path d="M4 6h15l-1.4 15.5A2 2 0 0 1 15.6 23H6.4a2 2 0 0 1-2-1.5L3 6z" fill="none" stroke="#F7F3EA" stroke-width="1.8" stroke-linejoin="round" />
    <path d="M7 6V4.5a4.5 4.5 0 0 1 9 0V6" fill="none" stroke="#F7F3EA" stroke-width="1.8" stroke-linecap="round" />
  </g>
</svg>
